<?xml version="1.0" encoding="UTF-8" standalone="no"?>
<svg width="431px" height="123px" viewBox="0 0 431 123" version="1.1" xmlns="http://www.w3.org/2000/svg" xmlns:xlink="http://www.w3.org/1999/xlink">
    <!-- Generator: Sketch 3.8.3 (29802) - http://www.bohemiancoding.com/sketch -->
    <title>logo-alt</title>
    <desc>Created with Sketch.</desc>
    <defs></defs>
    <g id="Page-1" stroke="none" stroke-width="1" fill="none" fill-rule="evenodd">
        <g id="loftsmart-alt">
            <g id="Page-1">
                <g id="logo-alt">
                    <path d="M88.5,55.353516 C89.444015,57.241546 90.152016,59.235341 90.624023,61.334961 C91.096031,63.434581 91.332031,65.802721 91.332031,68.439453 C91.332031,70.360036 91.120445,72.296865 90.697266,74.25 C90.274086,76.203135 89.663741,78.091137 88.866211,79.914062 C88.068681,81.736988 87.092128,83.445956 85.936523,85.041016 C84.780919,86.636076 83.462573,88.019525 81.981445,89.191406 C80.500318,90.363287 78.880868,91.291012 77.123047,91.974609 C75.365226,92.658207 73.4935,93 71.507812,93 C68.643215,93 66.193695,92.373379 64.15918,91.120117 C62.124664,89.866856 60.456387,88.23113 59.154297,86.212891 C57.852207,84.194651 56.900068,81.916028 56.297852,79.376953 C55.695635,76.837878 55.394531,74.266289 55.394531,71.662109 C55.394531,67.365213 55.931635,63.66245 57.005859,60.553711 C58.080083,57.444971 59.618154,54.743176 61.620117,52.448242 C63.62208,50.153309 66.0716,48.346686 68.96875,47.02832 C71.8659,45.709954 75.121076,45.050781 78.734375,45.050781 C81.826838,45.050781 84.723945,45.53092 87.425781,46.491211 C90.127618,47.451502 92.658517,48.737297 95.018555,50.348633 C97.378593,51.959969 99.575836,53.986316 101.610352,56.427734 C103.644867,58.869153 105.541007,61.196604 107.298828,63.410156 L106.371094,70.294922 C105.492183,69.123041 104.304044,67.853522 102.806641,66.486328 C101.309237,65.119134 99.722339,63.605477 98.045898,61.945312 C96.369458,60.285148 94.717456,58.877284 93.089844,57.72168 C91.462231,56.566075 88.5,55.353516 88.5,55.353516 L88.5,55.353516 L88.5,55.353516 Z M73.412109,83.625 C74.518886,83.625 75.593094,83.063482 76.634766,81.94043 C77.676437,80.817377 78.587887,79.401376 79.369141,77.692383 C80.150395,75.98339 80.777016,73.916353 81.249023,71.491211 C81.721031,69.066069 81.957031,66.909515 81.957031,65.021484 C81.957031,63.524081 81.8431,62.132493 81.615234,60.84668 C81.387369,59.560866 81.045575,58.445968 80.589844,57.501953 C80.134112,56.557938 79.548181,55.809248 78.832031,55.255859 C78.115882,54.702471 77.25326,54.425781 76.244141,54.425781 C74.909499,54.425781 73.63998,54.995437 72.435547,56.134766 C71.231114,57.274094 70.173182,58.730785 69.261719,60.504883 C68.350256,62.27898 67.634117,64.240224 67.113281,66.388672 C66.592445,68.53712 66.332031,70.962226 66.332031,73.664062 C66.332031,75.031257 66.462238,76.317051 66.722656,77.521484 C66.983074,78.725917 67.389971,79.775712 67.943359,80.670898 C68.496748,81.566085 69.229162,82.282224 70.140625,82.819336 C71.052088,83.356448 72.142572,83.625 73.412109,83.625 L73.412109,83.625 L73.412109,83.625 Z" id="o" fill="#FFFFFF"></path>
                    <path d="M98.801758,91.876953 C98.883138,90.054027 99.037759,87.628921 99.265625,84.601562 C99.493491,81.574204 99.802732,78.083028 100.193359,74.12793 C100.583986,70.172832 101.096677,65.989931 101.731445,61.579102 C102.366214,57.168272 103.114905,52.643578 103.977539,48.004883 C104.840174,43.366188 105.865554,38.849631 107.053711,34.455078 C108.241868,30.060525 109.600904,25.918314 111.130859,22.02832 C112.660815,18.138327 114.37792,14.7366682 116.282227,11.8232422 C118.186533,8.9098162 120.310535,6.6067793 122.654297,4.9140625 C124.998059,3.2213457 127.569647,2.375 130.369141,2.375 C131.475917,2.375 132.639642,2.5703105 133.860352,2.9609375 C135.081061,3.3515645 136.195958,3.9863237 137.205078,4.8652344 C138.214198,5.744145 139.052406,6.9078704 139.719727,8.3564453 C140.387048,9.8050203 140.720703,11.587229 140.720703,13.703125 C140.720703,15.6237075 140.419599,17.8290891 139.817383,20.319336 C139.215166,22.809583 138.368821,25.470689 137.27832,28.302734 C136.18782,31.13478 134.902026,34.080714 133.420898,37.140625 C131.939771,40.200536 130.320321,43.252263 128.5625,46.295898 C126.804679,49.339533 124.957366,52.334295 123.020508,55.280273 C121.083649,58.226252 115.990234,64.337891 115.990234,64.337891 L122.703125,64.337891 C125.925797,64.337891 128.774076,63.955407 131.248047,63.19043 C133.722018,62.425452 135.80533,61.570968 137.498047,60.626953 C139.483734,59.552729 142.799656,57.514109 144.264507,56.08181 L144.264507,64.337891 C144.264507,64.337891 137.498047,71.039009 128.367188,72.931641 C126.055978,73.289715 123.761079,73.517578 121.482422,73.615234 C122.654303,75.763683 123.712235,77.993478 124.65625,80.304688 C125.470056,82.290375 126.210609,84.512032 126.87793,86.969727 C127.545251,89.427421 127.878906,91.909493 127.878906,94.416016 C127.878906,94.708986 127.838217,95.327469 127.756836,96.271484 C127.675455,97.2155 127.53711,98.371087 127.341797,99.738281 C127.146483,101.105476 126.869793,102.619132 126.511719,104.279297 C126.153644,105.939461 125.689781,107.615877 125.120117,109.308594 C124.550453,111.001311 123.858728,112.637036 123.044922,114.21582 C122.231116,115.794604 121.278977,117.19433 120.188477,118.415039 C119.097976,119.635748 117.844734,120.620439 116.428711,121.369141 C115.012688,122.117842 113.409514,122.492188 111.619141,122.492188 C109.828767,122.492188 108.266283,122.085291 106.931641,121.271484 C105.596999,120.457678 104.457687,119.359056 103.513672,117.975586 C102.569657,116.592115 101.780277,114.980803 101.145508,113.141602 C100.510739,111.3024 100.014325,109.357432 99.65625,107.306641 C99.298175,105.255849 99.045899,103.164399 98.899414,101.032227 C98.752929,98.900054 98.679688,96.841156 98.679688,94.855469 C98.679688,94.692708 98.720377,93.699879 98.801758,91.876953 L98.801758,91.876953 L98.801758,91.876953 Z M119.089844,30.5 C118.01562,34.080747 117.209964,37.254543 116.672852,40.021484 C116.13574,42.788425 115.753256,45.221669 115.525391,47.321289 C115.297525,49.420909 115.069663,51.365876 114.841797,53.15625 C116.827484,49.412742 118.878245,45.766945 120.994141,42.21875 C123.110037,38.670555 124.981763,35.342138 126.609375,32.233398 C128.236987,29.124659 129.628575,26.121759 130.78418,23.224609 C131.939784,20.327459 132.41751,18.238191 132.517578,17.0234375 C132.691366,14.9137717 132.025,13.562526 131.785156,13.2392578 C131.545313,12.9159896 131.002037,11.9826332 129.154865,11.9826332 C127.462148,11.9826332 124.688808,15.5097524 123.582031,18.146484 C121.759105,22.475933 120.261725,26.59373 119.089844,30.5 L119.089844,30.5 L119.089844,30.5 Z M112.061373,69.498031 C111.474619,69.638226 110.959962,71.995762 110.813477,73.151367 C110.666991,74.306972 110.528646,75.967112 110.398438,78.131836 C110.268229,80.29656 110.154297,82.070631 110.056641,83.454102 C109.958984,84.837572 109.877604,86.123366 109.8125,87.311523 C109.747396,88.49968 109.714844,89.435543 109.714844,90.119141 C109.714844,94.904321 109.804361,98.712876 109.983398,101.544922 C110.162436,104.376967 110.390298,106.525383 110.666992,107.990234 C110.943686,109.455085 111.252928,110.407224 111.594727,110.84668 C111.936525,111.286135 112.286457,111.505859 112.644531,111.505859 C113.751308,111.505859 114.638343,111.001307 115.305664,109.992188 C115.972985,108.983068 116.477537,107.705411 116.819336,106.15918 C117.161135,104.612948 118.912955,97.8946 118.570796,92.067705 C118.228637,86.24081 117.303935,82.450958 116.477539,79.450195 C115.651143,76.449432 113.028204,69.267024 112.061373,69.498031 L112.061373,69.498031 L112.061373,69.498031 Z" id="f" fill="#FFFFFF"></path>
                    <path d="M182.050781,82.0625 C182.050781,82.0625 174.015859,87.990341 170.062741,89.996735 C166.109624,92.003128 163.764647,93 158.076172,93 C155.602203,93 153.421233,92.25131 151.533203,90.753906 C149.645173,89.256503 148.066413,87.099949 146.796875,84.28418 C145.527337,81.46841 144.575198,78.058614 143.94043,74.054688 C143.305661,70.050761 142.988281,65.542343 142.988281,60.529297 C142.988281,58.576162 143.069661,56.49285 143.232422,54.279297 C143.395183,52.065744 143.623045,49.8685 143.916016,47.6875 C142.939448,47.557291 133.986674,42.086887 135.87568,37.363369 C140.666918,39.230175 143.916016,39.875 145.283203,39.875 C146.162114,35.480447 147.277011,31.224304 148.62793,27.106445 C149.978848,22.988586 151.492505,19.326513 153.168945,16.1201172 C154.845386,12.9137209 156.676422,10.3421321 158.662109,8.4052734 C160.647796,6.4684148 162.731109,5.5 164.912109,5.5 C166.311856,5.5 167.589512,5.8906211 168.745117,6.671875 C169.900722,7.4531289 170.885413,8.4947852 171.699219,9.796875 C172.513025,11.0989648 173.139646,12.6207595 173.579102,14.3623047 C174.018557,16.1038499 174.238281,17.9186104 174.238281,19.806641 C174.238281,21.401701 174.010419,23.086254 173.554688,24.860352 C173.098956,26.634449 172.480473,28.441072 171.699219,30.280273 C170.917965,32.119475 169.998378,33.983063 168.94043,35.871094 C167.882482,37.759124 166.767584,39.63085 165.595703,41.486328 C165.888673,41.51888 170.64523,41.85939 180.552381,41.486328 C180.552381,48.854195 160.175781,49.25 160.175781,49.25 C159.231766,50.55209 158.279627,51.829746 157.319336,53.083008 C156.359045,54.336269 155.472009,55.467443 154.658203,56.476562 C152.193204,67.003662 154.186196,75.731114 154.511719,76.935547 C154.837241,78.13998 155.309242,79.124671 155.927734,79.889648 C156.546227,80.654626 157.303055,81.208006 158.198242,81.549805 C159.093429,81.891603 160.094396,82.0625 161.201172,82.0625 C161.884769,82.0625 162.739253,81.899741 163.764648,81.574219 C164.790044,81.248696 165.91308,80.80111 167.133789,80.231445 C168.354498,79.661781 169.640293,78.986332 170.991211,78.205078 C172.342129,77.423824 173.676751,76.569341 174.995117,75.641602 C176.313483,74.713863 179.902234,72.038528 181.873914,70.040337 C179.902234,77.344528 182.050781,82.0625 182.050781,82.0625 L182.050781,82.0625 L182.050781,82.0625 Z M166.352539,19.049805 C166.303711,18.610349 166.197917,18.195314 166.035156,17.8046875 C165.872395,17.4140605 165.620119,17.088543 165.27832,16.828125 C164.936522,16.567707 164.456383,16.4375 163.837891,16.4375 C162.991532,16.4375 162.137049,17.1861904 161.274414,18.683594 C160.41178,20.180997 159.58171,22.093413 158.78418,24.420898 C157.98665,26.748384 157.237959,29.311835 156.538086,32.111328 C155.838213,34.910821 154.661283,41.46997 155.149567,41.518799 C155.63785,41.567627 159.672065,36.963747 160.730013,35.026888 C161.787961,33.090029 162.649735,31.370778 163.496094,29.499023 C164.342452,27.627269 165.042315,25.877612 165.595703,24.25 C166.149091,22.622388 166.425781,21.287766 166.425781,20.246094 C166.425781,19.888019 166.401367,19.48926 166.352539,19.049805 L166.352539,19.049805 L166.352539,19.049805 Z" id="t" fill="#FFFFFF"></path>
                    <path d="M16.58022,67.1714 L16.984615,63.757606 C17.726011,56.729174 18.922336,50.278173 20.573626,44.404412 C22.224917,38.53065 24.171051,33.225936 26.412088,28.490112 C28.653125,23.754287 31.096324,19.612594 33.741758,16.0649087 C36.387193,12.5172236 39.083136,9.5469187 41.82967,7.1539047 C44.576204,4.7608907 47.288998,2.9703406 49.968132,1.7822008 C52.647266,0.594061 55.149439,0 57.474725,0 C59.159715,0 60.709883,0.3179481 62.125275,0.953854 C63.540666,1.5897598 64.753841,2.5436042 65.764835,3.8154158 C66.775829,5.0872275 67.567763,6.6769681 68.140659,8.5846856 C68.713556,10.492403 69,12.71804 69,15.2616633 C69,18.374255 68.52821,21.637407 67.584615,25.051217 C66.641021,28.465027 65.301474,31.912254 63.565934,35.393002 C61.830394,38.87375 59.749463,42.346078 57.323077,45.810091 C54.896691,49.274105 52.209172,52.61256 49.26044,55.825558 C46.311707,59.038556 43.127123,62.075797 39.706593,64.937373 C36.286063,67.798949 32.739213,70.350902 29.065934,72.593306 C27.456873,82.192978 29.378299,84.993858 30.407066,86.043617 C31.435833,87.093376 37.035884,86.030937 39.630769,85.294625 L57.323076,81.041176 C57.525275,80.974238 61.532793,83.808716 61.880975,88.795967 C58.578395,90.101247 47.378736,95.937698 33.236264,98.698783 C31.500724,98.899595 29.824184,99 28.206593,99 C25.712808,99 23.665576,98.57328 22.064835,97.719828 C20.464095,96.866375 19.200371,95.711721 18.273626,94.255832 C17.346882,92.799942 16.69817,90.699811 16.327473,87.955375 C15.956775,85.21094 15.771429,82.767759 15.771429,80.625761 C12.873246,82.73429 10.177543,83.888947 10.177543,83.888947 C8.155555,85.127289 -0.383176,80.274338 0.097267,78.949165 C1.61288,77.007782 14.996329,68.309336 16.58022,67.1714 L16.58022,67.1714 L16.58022,67.1714 Z M36.314779,54.201332 C38.161238,52.10945 39.991034,49.91719 41.804223,47.624488 C43.617411,45.331785 45.364035,42.988912 47.044146,40.595799 C48.724257,38.202686 50.237997,35.817976 51.585413,33.441598 C52.932828,31.06522 54.063975,28.755817 54.978887,26.51332 C55.893799,24.270822 56.484324,22.145502 56.75048,20.137295 C56.850288,19.467893 56.916826,18.823603 56.950096,18.204406 C56.983365,17.5852087 57,17.0078579 57,16.4723361 C57,14.5645396 56.742165,13.1755508 56.226488,12.3053279 C55.71081,11.4351049 55.003843,11 54.105566,11 C53.040942,11 51.793353,11.560616 50.362764,12.6818648 C48.932175,13.8031135 47.435069,15.4012874 45.871401,17.4764344 C44.307734,19.551581 42.727455,22.061802 41.130518,25.007172 C39.533581,27.952542 38.05311,31.232564 36.68906,34.847336 C35.325009,38.462108 34.135642,42.394787 33.120921,46.645492 C32.106201,50.896196 30.465391,55.313757 30.066157,59.966103 C30.066157,59.966103 34.468321,56.293214 36.314779,54.201332 L36.314779,54.201332 L36.314779,54.201332 Z" id="l" fill="#FFFFFF"></path>
                    <path d="M197.783203,28.9375 C197.783203,31.085948 198.409824,33.006502 199.663086,34.699219 C200.916347,36.391936 202.576487,37.962558 204.643555,39.411133 C206.710622,40.859708 209.054349,42.23502 211.674805,43.537109 C214.29526,44.839199 216.980781,46.181959 219.731445,47.56543 C222.48211,48.9489 225.16763,50.430005 227.788086,52.008789 C230.408542,53.587573 232.752268,55.369782 234.819336,57.355469 C236.886404,59.341156 238.546543,61.587227 239.799805,64.09375 C241.053066,66.600273 241.679688,69.464828 241.679688,72.6875 C241.679688,75.617202 241.207687,78.31086 240.263672,80.768555 C239.319657,83.226249 238.025724,85.431631 236.381836,87.384766 C234.737948,89.3379 232.79298,91.063144 230.546875,92.560547 C228.30077,94.05795 225.875664,95.294917 223.271484,96.271484 C220.667305,97.248052 217.932957,97.988604 215.068359,98.493164 C212.203762,98.997724 209.322931,99.25 206.425781,99.25 C202.35675,99.25 198.401712,98.753586 194.560547,97.760742 C190.719382,96.767899 187.301447,95.270518 184.306641,93.268555 C181.311834,91.266592 178.911142,88.760106 177.104492,85.749023 C175.297843,82.737941 174.394531,79.214213 174.394531,75.177734 C174.394531,73.094391 174.728187,71.263354 175.395508,69.68457 C176.062829,68.105786 176.892899,66.78744 177.885742,65.729492 C178.878586,64.671544 179.960932,63.874026 181.132812,63.336914 C182.304693,62.799802 183.395177,62.53125 184.404297,62.53125 C185.445969,62.53125 186.316728,62.816078 187.016602,63.385742 C187.716475,63.955406 188.066406,64.842442 188.066406,66.046875 C188.066406,66.600263 188.001303,67.186195 187.871094,67.804688 C187.740885,68.42318 187.60254,69.098629 187.456055,69.831055 C187.30957,70.56348 187.171225,71.369136 187.041016,72.248047 C186.910807,73.126958 186.845703,74.087234 186.845703,75.128906 C186.845703,77.407563 187.366531,79.376945 188.408203,81.037109 C189.449875,82.697274 190.833325,84.064448 192.558594,85.138672 C194.283863,86.212896 196.26952,87.010414 198.515625,87.53125 C200.76173,88.052086 203.089181,88.3125 205.498047,88.3125 C208.330092,88.3125 211.162095,87.970707 213.994141,87.287109 C216.826186,86.603512 219.365223,85.594408 221.611328,84.259766 C223.857433,82.925124 225.680332,81.289398 227.080078,79.352539 C228.479825,77.41568 229.179688,75.194023 229.179688,72.6875 C229.179688,70.376291 228.553066,68.309254 227.299805,66.486328 C226.046543,64.663402 224.386404,62.978849 222.319336,61.432617 C220.252268,59.886385 217.900404,58.429694 215.263672,57.0625 C212.62694,55.695306 209.94142,54.311856 207.207031,52.912109 C204.472643,51.512363 201.787123,50.039396 199.150391,48.493164 C196.513659,46.946932 194.161794,45.246103 192.094727,43.390625 C190.027659,41.535147 188.367519,39.459972 187.114258,37.165039 C185.860996,34.870106 185.234375,32.257827 185.234375,29.328125 C185.234375,26.593736 185.893548,23.900078 187.211914,21.24707 C188.53028,18.594062 190.515937,16.2177839 193.168945,14.1181641 C195.821953,12.0185442 199.134095,10.3177148 203.105469,9.015625 C207.076843,7.7135352 211.731744,7.0625 217.070312,7.0625 C220.455746,7.0625 223.767887,7.5670522 227.006836,8.5761719 C230.245784,9.5852915 233.134753,11.0175688 235.673828,12.8730469 C238.212903,14.7285249 240.255526,16.9420444 241.801758,19.513672 C243.34799,22.085299 244.121094,24.933578 244.121094,28.058594 C244.121094,29.914072 243.803714,31.81835 243.168945,33.771484 C242.534177,35.724619 241.516934,37.759104 240.117188,39.875 C238.749993,41.925792 237.26075,43.447586 235.649414,44.44043 C234.038078,45.433273 232.581387,45.929688 231.279297,45.929688 C230.302729,45.929688 229.505211,45.64486 228.886719,45.075195 C228.268226,44.505531 227.958984,43.651047 227.958984,42.511719 C227.958984,41.66536 228.154295,40.664394 228.544922,39.508789 C228.935549,38.353184 229.60286,37.0267 230.546875,35.529297 C231.425786,34.096998 232.076821,32.754238 232.5,31.500977 C232.923179,30.247715 233.134766,29.08399 233.134766,28.009766 C233.134766,26.349601 232.687179,24.89291 231.791992,23.639648 C230.896805,22.386387 229.659839,21.336593 228.081055,20.490234 C226.502271,19.643876 224.606131,19.009117 222.392578,18.585938 C220.179025,18.162758 217.753919,17.9511719 215.117188,17.9511719 C212.187485,17.9511719 209.64031,18.284827 207.475586,18.952148 C205.310862,19.619469 203.504239,20.482091 202.055664,21.540039 C200.607089,22.597987 199.532881,23.777988 198.833008,25.080078 C198.133135,26.382168 197.783203,27.667962 197.783203,28.9375 L197.783203,28.9375 L197.783203,28.9375 L197.783203,28.9375 Z" id="s" fill="#44AEF5"></path>
                    <path d="M260.832031,82.0625 C260.897136,81.281246 260.994791,80.386073 261.125,79.376953 C261.255209,78.367833 261.401692,77.301763 261.564453,76.178711 C261.727214,75.055658 261.889973,73.940761 262.052734,72.833984 C262.410809,70.229805 262.850258,67.430354 263.371094,64.435547 C263.371094,64.435547 256.096687,75.267238 254.680664,78.27832 C253.264641,81.289403 251.433605,85.057269 249.1875,89.582031 C248.536455,90.916673 247.779627,91.819985 246.916992,92.291992 C246.054358,92.764 245.102219,93 244.060547,93 C242.725905,93 242.651697,92.715172 241.837891,92.145508 C241.024084,91.575844 240.397463,90.810877 239.958008,89.850586 C239.518552,88.890295 239.225587,87.799811 239.079102,86.579102 C238.932616,85.358392 238.859375,84.097012 238.859375,82.794922 C238.859375,81.46028 238.940754,79.88152 239.103516,78.058594 C239.266277,76.235668 239.477863,74.315114 239.738281,72.296875 C239.998699,70.278636 240.381182,67.975599 240.885742,65.387695 C241.390302,62.799792 241.829751,60.545583 242.204102,58.625 C242.578452,56.704417 242.960936,54.946623 243.351562,53.351562 C243.742189,51.756502 244.100259,50.454432 244.425781,49.445312 C244.751304,48.403641 245.060545,47.573571 245.353516,46.955078 C245.646486,46.336585 245.980141,45.856447 246.354492,45.514648 C246.728843,45.17285 247.17643,44.944988 247.697266,44.831055 C248.218102,44.717122 248.885413,44.660156 249.699219,44.660156 C250.936204,44.660156 251.904619,44.700846 252.604492,44.782227 C253.304365,44.863607 253.825194,45.058918 254.166992,45.368164 C254.508791,45.67741 254.712239,46.124997 254.777344,46.710938 C254.842448,47.296878 254.875,48.094396 254.875,49.103516 C254.875,49.656904 254.850586,50.291663 254.801758,51.007812 C254.752929,51.723962 254.679688,52.488928 254.582031,53.302734 C254.516927,54.116541 254.419271,54.94661 254.289062,55.792969 C254.061197,57.420581 253.93099,58.266927 253.898438,58.332031 C253.442706,60.545584 253.019531,66.339844 253.019531,66.339844 C253.084636,66.242187 253.515947,65.379565 254.313477,63.751953 C255.111007,62.124341 255.973628,60.513029 256.901367,58.917969 C257.829106,57.322909 258.830073,55.654631 259.904297,53.913086 C260.978521,52.171541 262.003901,50.63347 262.980469,49.298828 C263.924484,47.964186 264.92545,46.857426 265.983398,45.978516 C267.041346,45.099605 268.302727,44.660156 269.767578,44.660156 C271.134772,44.660156 272.306636,45.058915 273.283203,45.856445 C274.259771,46.653975 274.748047,47.785149 274.748047,49.25 C274.748047,50.519538 274.666667,51.723953 274.503906,52.863281 C274.308593,54.328132 274.113282,55.434892 273.917969,56.183594 C273.690103,57.029952 273.429689,58.071608 273.136719,59.308594 C272.908853,60.382818 272.111328,66.339844 272.111328,66.339844 C272.176433,66.242187 272.632157,65.387703 273.478516,63.776367 C274.324874,62.165031 275.244461,60.561857 276.237305,58.966797 C277.230148,57.371737 278.28808,55.695321 279.411133,53.9375 C280.534185,52.179679 281.583979,50.63347 282.560547,49.298828 C283.504562,47.996738 284.448563,46.898116 285.392578,46.00293 C286.336593,45.107743 287.492181,44.660156 288.859375,44.660156 C290.389331,44.660156 291.683263,45.058915 292.741211,45.856445 C293.799159,46.653975 294.328125,47.785149 294.328125,49.25 C294.328125,51.496105 294.214194,53.628245 293.986328,55.646484 C293.758462,57.664724 293.416669,59.894519 292.960937,62.335938 C292.505206,64.777356 292.163413,66.999013 291.935547,69.000977 C291.707681,71.00294 291.59375,73.126942 291.59375,75.373047 C291.59375,77.130868 291.821612,78.563146 292.277344,79.669922 C292.733075,80.776698 293.286455,81.330078 293.9375,81.330078 C299.390232,81.330078 304.175011,77.148782 304.175011,77.162121 L304.175011,87.760685 C302.742712,88.900014 300.137466,90.201881 296.122898,91.591606 C292.10833,92.981331 290.405611,93 288.029297,93 C286.857416,93 285.872725,92.617517 285.075195,91.852539 C284.277665,91.087561 283.634768,90.021491 283.146484,88.654297 C282.658201,87.287103 282.308269,85.675791 282.09668,83.820312 C281.88509,81.964834 281.779297,79.946625 281.779297,77.765625 C281.779297,75.714833 281.852538,73.542004 281.999023,71.24707 C282.145509,68.952137 282.348957,66.632824 282.609375,64.289062 L270.964844,89.533203 C270.118485,90.900397 269.174484,91.819985 268.132813,92.291992 C267.091141,92.764 266.886726,93 265.519531,93 C264.477859,93 263.64779,92.715172 263.029297,92.145508 C262.410804,91.575844 261.930666,90.843429 261.588867,89.948242 C261.247069,89.053055 261.019206,88.068365 260.905273,86.994141 C260.791341,85.919917 260.734375,84.87826 260.734375,83.869141 C260.734375,83.445961 260.766927,82.843754 260.832031,82.0625 L260.832031,82.0625 L260.832031,82.0625 Z" id="m" fill="#44AEF5"></path>
                    <path d="M352.630859,81.037109 C351.882158,82.078781 350.881191,83.299472 349.62793,84.699219 C348.374668,86.098965 346.966805,87.433587 345.404297,88.703125 C343.841789,89.972663 342.165374,91.046871 340.375,91.925781 C338.584626,92.804692 336.79428,93.244141 335.003906,93.244141 C332.855458,93.244141 331.065111,92.552416 329.632812,91.168945 C328.200514,89.785475 326.963547,87.775404 325.921875,85.138672 C325.140621,86.050135 324.180344,86.97786 323.041016,87.921875 C321.901687,88.86589 320.656582,89.720374 319.305664,90.485352 C317.954746,91.250329 316.546882,91.876951 315.082031,92.365234 C313.61718,92.853518 312.152351,93.097656 310.6875,93.097656 C309.124992,93.097656 307.603198,92.780277 306.12207,92.145508 C304.640943,91.510739 303.330735,90.59929 302.191406,89.411133 C301.052078,88.222976 300.140628,86.774423 299.457031,85.06543 C298.773434,83.356437 298.431641,81.427745 298.431641,79.279297 C298.431641,76.837878 298.773434,74.331393 299.457031,71.759766 C300.140628,69.188138 301.198561,66.404963 302.630859,63.410156 C304.063158,60.41535 305.601229,57.827485 307.245117,55.646484 C308.889006,53.465484 310.68749,51.561206 312.640625,49.933594 C314.59376,48.305981 316.652658,47.012049 318.817383,46.051758 C320.982107,45.091467 323.187489,44.611328 325.433594,44.611328 C326.182295,44.611328 326.768227,44.757811 327.191406,45.050781 C327.614585,45.343751 327.964517,45.677407 328.241211,46.051758 C328.517905,46.426109 328.786457,46.792316 329.046875,47.150391 C329.307293,47.508465 329.632811,47.768879 330.023438,47.931641 C330.414064,48.094402 330.812823,48.200195 331.219727,48.249023 C331.62663,48.297852 332.041665,48.322266 332.464844,48.322266 C332.822918,48.322266 333.189126,48.314128 333.563477,48.297852 C333.937827,48.281575 334.304035,48.273438 334.662109,48.273438 C335.150393,48.273438 335.606118,48.322265 336.029297,48.419922 C336.452476,48.517579 336.826821,48.729165 337.152344,49.054688 C337.477866,49.38021 337.730142,49.835935 337.90918,50.421875 C338.088217,51.007815 338.177734,51.805333 338.177734,52.814453 C338.177734,54.376961 338.014976,56.110342 337.689453,58.014648 C337.363931,59.918955 337.005861,61.87206 336.615234,63.874023 C336.224607,65.875987 335.752607,68.146472 335.199219,70.685547 C334.645831,73.224622 334.369141,75.389314 334.369141,77.179688 C334.369141,78.709643 334.507486,79.90592 334.78418,80.768555 C335.060874,81.631189 335.654943,82.0625 336.566406,82.0625 C337.250003,82.0625 337.966142,81.891603 338.714844,81.549805 C339.463545,81.208006 340.220374,80.760419 340.985352,80.207031 C341.750329,79.653643 342.515296,79.027022 343.280273,78.327148 C344.045251,77.627275 344.769528,76.902999 345.453125,76.154297 C347.048185,74.396476 348.659497,72.410818 350.287109,70.197266 L352.630859,81.037109 L352.630859,81.037109 L352.630859,81.037109 Z M310.931641,77.179688 C310.931641,77.993494 310.988606,78.782874 311.102539,79.547852 C311.216472,80.312829 311.41992,80.996416 311.712891,81.598633 C312.005861,82.200849 312.396482,82.689126 312.884766,83.063477 C313.373049,83.437827 313.991533,83.625 314.740234,83.625 C315.944667,83.625 317.035151,83.104172 318.011719,82.0625 C318.988286,81.020828 319.834632,79.767585 320.550781,78.302734 C321.266931,76.837883 321.844724,75.324227 322.28418,73.761719 C322.723635,72.199211 323.008463,70.897141 323.138672,69.855469 L326.800781,53.888672 C325.466139,53.888672 324.164069,54.222327 322.894531,54.889648 C321.624994,55.556969 320.428717,56.460281 319.305664,57.599609 C318.182612,58.738938 317.149093,60.041008 316.205078,61.505859 C315.261063,62.97071 314.333338,64.777333 313.421875,66.925781 C312.510412,69.074229 311.867515,70.962231 311.493164,72.589844 C311.118813,74.217456 310.931641,75.747389 310.931641,77.179688 L310.931641,77.179688 L310.931641,77.179688 Z" id="a" fill="#44AEF5"></path>
                    <path d="M343.164062,77.790039 C343.326824,75.885733 343.546548,73.875662 343.823242,71.759766 C344.099936,69.64387 344.425454,67.487316 344.799805,65.290039 C345.174156,63.092762 345.654294,60.749036 346.240234,58.258789 C346.826175,55.768542 347.330727,53.693368 347.753906,52.033203 C348.177085,50.373039 348.600258,49.005865 349.023438,47.931641 C349.283855,47.215491 349.54427,46.645835 349.804688,46.222656 C350.065105,45.799477 350.366209,45.465822 350.708008,45.22168 C351.049806,44.977538 351.472979,44.814779 351.977539,44.733398 C352.482099,44.652018 353.10872,44.611328 353.857422,44.611328 C354.70378,44.611328 355.362953,44.652018 355.834961,44.733398 C356.306969,44.814779 356.6569,45.01009 356.884766,45.319336 C357.112631,45.628582 357.250976,46.076169 357.299805,46.662109 C357.348633,47.24805 357.373047,48.045568 357.373047,49.054688 C357.373047,50.259121 357.291667,51.968088 357.128906,54.181641 C356.966145,56.395193 356.917317,58.332023 356.982422,59.992188 L357.519531,59.992188 C358.170576,58.690098 358.98437,56.98113 359.960938,54.865234 C360.937505,52.749338 361.962885,50.991543 363.037109,49.591797 C364.111333,48.19205 365.332024,47.012049 366.699219,46.051758 C368.066413,45.091467 369.645173,44.611328 371.435547,44.611328 C372.05404,44.611328 372.656247,44.717121 373.242188,44.928711 C373.828128,45.140301 374.340818,45.441404 374.780273,45.832031 C375.219729,46.222658 375.56966,46.702797 375.830078,47.272461 C376.090496,47.842125 376.220703,48.485022 376.220703,49.201172 C376.220703,49.75456 376.139324,50.527664 375.976562,51.520508 C375.813801,52.513351 375.553387,53.807284 375.195312,55.402344 C374.837238,56.997404 374.576824,58.307612 374.414062,59.333008 C374.251301,60.358404 374.169922,61.212887 374.169922,61.896484 C374.169922,63.068365 374.283853,64.044918 374.511719,64.826172 C374.739584,65.607426 375.040688,66.234047 375.415039,66.706055 C375.78939,67.178062 376.212563,67.511718 376.68457,67.707031 C377.156578,67.902345 377.652992,68 378.173828,68 C379.638679,68 381.462883,67.689192 383.025391,67.038147 C387.530643,65.290039 391.637944,61.048935 393.102795,59.844501 L393.102795,68.12207 C390.268181,70.98151 386.181709,76.623516 380.639648,78.327148 C379.321282,78.734052 377.978522,78.9375 376.611328,78.9375 C374.16991,78.9375 372.200528,78.441086 370.703125,77.448242 C369.205722,76.455399 368.017583,75.153328 367.138672,73.541992 C366.259761,71.930656 365.608726,70.124033 365.185547,68.12207 C364.762368,66.120107 364.420574,64.09376 364.160156,62.042969 L363.378906,62.042969 L354.638672,86.408203 C354.18294,87.677741 353.75163,88.727535 353.344727,89.557617 C352.937823,90.387699 352.522789,91.063148 352.099609,91.583984 C351.67643,92.10482 351.220706,92.471028 350.732422,92.682617 C350.244138,92.894207 349.707034,93 349.121094,93 C347.786452,93 346.712244,92.715172 345.898438,92.145508 C345.084631,91.575844 344.45801,90.810877 344.018555,89.850586 C343.579099,88.890295 343.286134,87.799811 343.139648,86.579102 C342.993163,85.358392 342.919922,84.097012 342.919922,82.794922 C342.919922,81.362623 343.001301,79.694345 343.164062,77.790039 L343.164062,77.790039 L343.164062,77.790039 Z" id="r" fill="#44AEF5"></path>
                    <path d="M430.698873,75.846825 C430.74887,79.40663 422.331175,91.467682 406.169065,92.934418 C403.695096,92.934418 400.421233,92.25131 398.533203,90.753906 C396.645173,89.256503 395.066413,87.099949 393.796875,84.28418 C392.527337,81.46841 391.575198,78.058614 390.94043,74.054688 C390.305661,70.050761 389.988281,65.542343 389.988281,60.529297 C389.988281,58.576162 390.069661,56.49285 390.232422,54.279297 C390.395183,52.065744 390.623045,49.8685 390.916016,47.6875 C389.939448,47.557291 368.067807,43.641945 371.082393,34.79064 C380.304979,38.585754 390.916016,39.875 392.283203,39.875 C393.162114,35.480447 394.277011,31.224304 395.62793,27.106445 C396.978848,22.988586 398.492505,19.326513 400.168945,16.1201172 C401.845386,12.9137209 403.676422,10.3421321 405.662109,8.4052734 C407.647796,6.4684148 409.731109,5.5 411.912109,5.5 C413.311856,5.5 414.589512,5.8906211 415.745117,6.671875 C416.900722,7.4531289 417.885413,8.4947852 418.699219,9.796875 C419.513025,11.0989648 420.139646,12.6207595 420.579102,14.3623047 C421.018557,16.1038499 421.238281,17.9186104 421.238281,19.806641 C421.238281,21.401701 421.010419,23.086254 420.554688,24.860352 C420.098956,26.634449 419.480473,28.441072 418.699219,30.280273 C417.917965,32.119475 416.998378,33.983063 415.94043,35.871094 C414.882482,37.759124 413.767584,39.63085 412.595703,41.486328 C412.888673,41.51888 417.64523,41.85939 427.552381,41.486328 C427.552381,49.991337 407.175781,49.25 407.175781,49.25 C406.231766,50.55209 405.279627,51.829746 404.319336,53.083008 C403.359045,54.336269 402.472009,55.467443 401.658203,56.476562 C399.193204,67.003662 401.186196,75.731114 401.511719,76.935547 C401.837241,78.13998 402.309242,79.124671 402.927734,79.889648 C403.546227,80.654626 404.303055,81.208006 405.198242,81.549805 C406.093429,81.891603 407.094396,82.0625 408.201172,82.0625 C408.884769,82.0625 409.739253,81.899741 410.764648,81.574219 C411.790044,81.248696 412.91308,80.80111 414.133789,80.231445 C415.354498,79.661781 416.640293,78.986332 417.991211,78.205078 C419.342129,77.423824 420.676751,76.569341 421.995117,75.641602 C423.313483,74.713863 426.902234,72.038528 428.873914,70.040337 C430.394544,71.730942 430.674157,74.087064 430.698873,75.846825 L430.698873,75.846825 L430.698873,75.846825 Z M414.318295,18.612305 C414.269466,18.172849 414.163673,17.7578145 414.000912,17.3671875 C413.838151,16.9765605 413.585875,16.651043 413.244076,16.390625 C412.902277,16.130207 412.422139,16 411.803646,16 C410.957288,16 410.102804,16.7486904 409.24017,18.246094 C408.377535,19.743497 407.547465,21.655913 406.749935,23.983398 C405.952405,26.310884 405.203715,28.874335 404.503842,31.673828 C403.803968,34.473321 402.627039,41.03247 403.115322,41.081299 C403.603606,41.130127 407.63782,36.526247 408.695768,34.589388 C409.753716,32.652529 410.615491,30.933278 411.461849,29.061523 C412.308208,27.189769 413.008071,25.440112 413.561459,23.8125 C414.114847,22.184888 414.391537,20.850266 414.391537,19.808594 C414.391537,19.450519 414.367123,19.05176 414.318295,18.612305 L414.318295,18.612305 L414.318295,18.612305 Z" id="t" fill="#44AEF5"></path>
                </g>
            </g>
        </g>
    </g>
</svg>